<?xml version="1.0" encoding="utf-8"?>
<!-- Generator: Adobe Illustrator 27.2.0, SVG Export Plug-In . SVG Version: 6.00 Build 0)  -->
<svg version="1.1" id="Calque_1" xmlns="http://www.w3.org/2000/svg" xmlns:xlink="http://www.w3.org/1999/xlink" x="0px" y="0px"
	 viewBox="0 0 500 500" style="enable-background:new 0 0 500 500;" xml:space="preserve">
<style type="text/css">
	.st0{fill:#FFFFFF;}
</style>
<g>
	<path class="st0" d="M15.6,251.2c0-61.3,0-122.6,0-183.9C15.6,26.6,42.2,0.1,82.9,0C173.2,0,263.4,0,353.6,0
		c41.2,0,68.1,26.9,68.1,68c0,121.6,0,243.1,0,364.7c0,41.2-26.3,67.3-67.2,67.3c-91.3,0-182.5,0-273.8,0
		c-38.5,0-65.1-26.3-65.1-64.9C15.6,373.9,15.6,312.5,15.6,251.2z M44.8,250.1c0,61.6-0.1,123.2,0,184.9c0,22.4,11.3,34,33.5,35.4
		c3.8,0.2,7.7,0.2,11.5,0.2c85.7,0,171.3,0,257,0c5.6,0,11.1-0.2,16.7-0.6c13.7-1,24.4-10.1,27.1-23.4c1.1-5.4,1.9-11,1.9-16.5
		c0.1-119.8,0.2-239.5,0-359.3c0-29.4-12-41.5-41.2-41.5c-88.8-0.2-177.6-0.2-266.4,0c-28.2,0.1-40,12.3-40.1,40.2
		C44.8,129.7,44.8,189.9,44.8,250.1z"/>
	<path class="st0" d="M454.6,108.1c0-12.5,0.2-25-0.1-37.5c-0.2-5.9,2.1-7.8,7.9-8c15.8-0.5,21.9,5,22,20.5
		c0.1,17.7,0.1,35.4,0,53.1c-0.1,15.6-9.6,22.9-24.7,18.8c-2.2-0.6-4.6-4.8-4.7-7.4C454.4,134.4,454.6,121.2,454.6,108.1z"/>
	<path class="st0" d="M454.6,359.7c0-12.5,0.4-25-0.1-37.5c-0.3-7.1,2.5-9,9.1-8.9c15.2,0.2,20.7,5.3,20.8,20.6
		c0.1,17.7,0.1,35.4,0,53.1c-0.1,15.5-9.9,22.9-24.9,18.6c-2.1-0.6-4.5-4.9-4.6-7.5C454.4,385.4,454.6,372.6,454.6,359.7z"/>
	<path class="st0" d="M455.3,188.1c4.8,0,7.9-0.1,11,0c12,0.3,17.9,5.9,18,17.9c0.2,16.6,0,33.3,0,49.9c0,22.6-5.6,27.1-29,22.7
		C455.3,248.8,455.3,218.8,455.3,188.1z"/>
	<path class="st0" d="M157.1,187.6c0-34.5,27.2-61.6,61.6-61.5c34,0.1,61.5,27.9,61.3,62c-0.2,33.5-27.7,60.9-61.3,61
		C184.4,249.2,157.1,222.1,157.1,187.6z M218.7,219.3c19,0,31.9-13,31.9-31.9c-0.1-18.8-13.1-31.4-32.4-31.4
		c-19.1,0.1-32.2,13.1-32,31.9C186.4,206.8,199.3,219.3,218.7,219.3z"/>
	<path class="st0" d="M219.2,282.6c-10.4,0-20.9-0.2-31.3,0c-44.3,0.9-76.1,31.1-77.8,73.6c-0.4,11.3,3.6,17.3,12.4,18.5
		c8.6,1.2,15.2-4.9,17.1-15.7c0.3-1.7,0.2-3.5,0.4-5.2c2.8-22.5,20.6-40,43.3-40.9c23.3-0.9,46.7-0.9,69.9,0
		c23.8,1,41.2,18.7,43.9,42.5c0.4,3.8,0.2,8.9,2.5,10.9c4.2,3.7,10,7.4,15.2,7.7c6.5,0.3,11-4.4,11.6-12.1
		c2.4-30.4-15.7-62.5-44.8-71.8C281.7,290.1,249.4,282,219.2,282.6z"/>
</g>
</svg>
