<?xml version="1.0" encoding="utf-8"?>
<!-- Generator: Adobe Illustrator 27.2.0, SVG Export Plug-In . SVG Version: 6.00 Build 0)  -->
<svg version="1.1" id="Calque_1" xmlns="http://www.w3.org/2000/svg" xmlns:xlink="http://www.w3.org/1999/xlink" x="0px" y="0px"
	 viewBox="0 0 500 500" style="enable-background:new 0 0 500 500;" xml:space="preserve">
<style type="text/css">
	.st0{fill:#FFFFFF;}
</style>
<g>
	<path class="st0" d="M125.7,265.6c9.4-6.3,17.4-12.4,26-17.3c15.7-9,33-12.8,51.1-13c34.5-0.4,69.1,0.7,103.5-1.4
		c38.3-2.4,65.8-31.7,69.7-70c0.8-7.5-1.3-11.1-8.8-13.6c-49.2-16.3-68.5-72.9-40.1-116.6c16.9-26,49.7-38.6,82.4-31.9
		C439.2,8,462,31.9,467.1,62.3c7,41.4-12.5,75-51.9,88.3c-6.7,2.3-9,5.7-9.6,12.6c-4.7,52-36.8,88.4-87.7,99.6
		c-5.7,1.3-11.8,1.5-17.6,1.5c-31.4,0.1-62.8-0.2-94.1,0.1c-38.5,0.5-67.3,21.1-78.5,55.8c-0.8,2.3-1.5,4.7-1.7,7.1
		c-1.5,16.4-5.6,17.4,13.1,24.4c38.2,14.2,55.9,55.5,43.2,96.6c-11.3,36.5-51.3,58.7-90,49.9c-35.4-8.1-59-36-60.6-71.8
		c-1.6-36,19.9-67,54.7-77.5c6.5-2,8-5.2,8-11.1c-0.1-58.5-0.3-117.1,0.2-175.7c0.1-9.1-5.6-9.9-11.3-12
		C27.7,130.3,13.4,57.7,57.2,19C80.3-1.4,117.1-5.8,145.4,8.5c26.7,13.5,42.9,42.5,40.9,73.2c-2.2,33.7-21.3,58.2-53,69.2
		c-3.6,1.2-8.4,6-8.5,9.2c-0.6,33.4-0.3,66.9-0.3,100.4C124.4,261.7,125.1,263,125.7,265.6z M108.7,469.8
		c27.1,0,48.4-20.9,48.3-47.2c-0.1-26.5-21.5-47.6-48-47.6c-26.2,0-48,21.8-47.8,47.9C61.3,448.6,82.8,469.9,108.7,469.8z
		 M61.1,76.9c-0.2,26,21.9,48.4,47.7,48.5c25.7,0.1,48-22.1,48.2-48c0.2-26.2-21.1-47.2-48.2-47.3C82.7,30.1,61.3,51.2,61.1,76.9z
		 M392,30.2c-26.9-0.1-48.6,20.9-48.7,47c0,25.4,22.5,48,48.1,48.2c26,0.3,47.6-21.6,47.6-48.2C439.1,51,418.3,30.3,392,30.2z"/>
</g>
</svg>
