<?xml version="1.0" encoding="utf-8"?>
<!-- Generator: Adobe Illustrator 27.2.0, SVG Export Plug-In . SVG Version: 6.00 Build 0)  -->
<svg version="1.1" id="Calque_1" xmlns="http://www.w3.org/2000/svg" xmlns:xlink="http://www.w3.org/1999/xlink" x="0px" y="0px"
	 viewBox="0 0 500 500" style="enable-background:new 0 0 500 500;" xml:space="preserve">
<style type="text/css">
	.st0{fill:#FFFFFF;}
</style>
<g>
	<path class="st0" d="M249.2,449.3c-65.7,0-131.4,0-197.1,0c-30.8,0-52-21-52-51.8C0,323.6,0,249.9,0.1,176.1
		c0-29.5,21.1-50.4,50.5-50.4c24.5,0,49,0.2,73.5-0.2c5-0.1,10.5-1.7,14.7-4.4c33.3-21.7,66.5-43.6,99.5-65.9
		c7.8-5.3,14-6.4,22.5-0.6c32.6,22.3,65.6,44,98.8,65.4c5.2,3.4,12.2,5.3,18.5,5.4c23.6,0.6,47.4,1.1,71,0
		c24.6-1.1,50.5,18.2,50.7,48.7c0.4,75.2,0.5,150.3-0.1,225.5c-0.3,30-21.6,49.5-51.6,49.6C381.7,449.3,315.5,449.2,249.2,449.3z
		 M23.4,287.2c0,16.4,0,32.9,0,49.3c0,21.4-0.2,42.9,0.3,64.3c0.3,14.6,9.7,24.3,24.1,24.5c48.7,0.5,97.4,0.4,146.2,0.7
		c6.1,0,6.7-3,6.7-7.8c-0.1-22.8-0.3-45.7,0-68.5c0.5-34.2,34.2-57.5,66.1-46.1c20,7.2,32.4,25.4,32.5,48.7c0.2,22,0.1,44,0,66
		c0,5,1,7.7,6.9,7.7c48.2-0.3,96.3,0,144.5-0.6c16-0.2,23.5-8.1,25.3-24c0.4-3.6,0.5-7.2,0.5-10.8c0-68.8,0-137.5,0-206.3
		c0-3.3,0-6.7-0.3-10c-1.8-17.5-10.2-25.2-27.8-25.2c-26.7,0-53.5,0.2-80.2-0.2c-4.9-0.1-10.5-1.7-14.6-4.4
		c-32.1-20.9-64-42.2-95.8-63.6c-5.2-3.5-9-4.3-14.8-0.3c-31.2,21.3-62.7,42.3-94.4,62.8c-5,3.3-11.8,5.3-17.8,5.5
		c-26.7,0.6-53.5-0.2-80.2,0.6c-6.4,0.2-13.6,2.9-18.9,6.7c-7.3,5.1-8.3,13.9-8.3,22.6C23.4,214.8,23.4,251,23.4,287.2z M224,383.9
		c0,0-0.1,0-0.1,0c0,11.7,0.1,23.4,0,35c0,4.1,0.4,7,5.7,6.9c13.6-0.2,27.3,0.1,40.9-0.3c1.9-0.1,5.2-3.4,5.2-5.2
		c0.2-24.2,0.6-48.4-0.5-72.5c-0.8-16.4-11.1-23.8-28.3-23.1c-13,0.5-22.2,10.4-22.7,25C223.7,361.1,224,372.5,224,383.9z"/>
	<path class="st0" d="M224,383.9c0-11.4-0.3-22.8,0.1-34.2c0.5-14.6,9.7-24.5,22.7-25c17.3-0.7,27.6,6.7,28.3,23.1
		c1.1,24.1,0.7,48.3,0.5,72.5c0,1.8-3.4,5.2-5.2,5.2c-13.6,0.5-27.2,0.1-40.9,0.3c-5.3,0.1-5.7-2.9-5.7-6.9c0.1-11.7,0-23.4,0-35
		C223.9,383.9,224,383.9,224,383.9z"/>
	<path class="st0" d="M249.4,273.3c-36.4,2.5-74-31.1-73.8-73.4c0.2-43.8,34.5-74.6,75.2-74.7c33.5-0.1,73.6,28.4,73.3,74.3
		C323.9,246.5,286.4,275.3,249.4,273.3z M250.3,149c-27.6-0.3-50.9,22.7-51.3,50.6c-0.4,27.2,22.4,49.9,50.5,50.3
		c27.6,0.4,50.6-22.3,51.2-50.6C301.3,172.2,278.4,149.4,250.3,149z"/>
	<path class="st0" d="M424.4,349.8c0,8.3,0,16.7,0,25c-0.1,14.5-9.2,24.2-23.6,24.7c-8.9,0.3-17.8,0.4-26.7,0
		c-13.5-0.5-22.8-10.3-22.9-23.6c-0.1-16.7-0.1-33.4,0-50c0-15.2,7.5-24.2,22.6-25.3c10.5-0.8,21.1-0.2,31.6,0.8
		c11.4,1.2,18.7,10.1,18.9,21.7C424.6,332,424.4,340.9,424.4,349.8z M374.4,349.7c0,6.4,0.1,12.8,0,19.2c-0.1,3.6,0,7.4,4.8,6.6
		c7.2-1.2,15.4,4,21.7-3.2c0.3-0.3,0.2-1.1,0.2-1.6c0-13.9,0.1-27.8-0.2-41.8c0-1.6-2.2-4.5-3.5-4.5c-7.2-0.2-14.7-0.8-21.3,1.3
		c-1.9,0.6-1.3,9.6-1.6,14.8C374.2,343.6,374.4,346.6,374.4,349.7z"/>
	<path class="st0" d="M75.4,349.7c0-8.1-0.2-16.1,0-24.2c0.4-15.2,7.3-23.3,22.4-24.8c9.9-0.9,20-0.7,29.9,0.3
		c13.5,1.4,20.9,9.9,21.2,23.4c0.3,17.2,0.3,34.4,0,51.7c-0.3,13.5-9.8,22.9-23.3,23.5c-8.9,0.4-17.8,0.4-26.7,0
		c-14.2-0.6-23-9.7-23.4-24C75.2,366.9,75.4,358.3,75.4,349.7z M98.8,349.5c0,6.6-0.5,13.3,0.3,19.9c0.2,2.2,3.7,6.1,5.2,5.9
		c7.1-0.9,15.4,4.4,21.3-3.4c0.4-0.5,0.2-1.6,0.2-2.5c0-13-0.1-26,0.1-39.1c0-4.6-2.1-7.2-6.4-6.2c-6.8,1.4-15-4.4-20.4,3.8
		c-0.8,1.2-0.2,3.3-0.2,4.9C98.8,338.4,98.8,344,98.8,349.5z"/>
	<path class="st0" d="M424.4,224.4c0,8.9,0.1,17.8,0,26.7c-0.2,13.2-8.9,22-22,22.2c-9.7,0.2-19.5,0.2-29.2,0
		c-13-0.3-21.8-9.1-21.9-22.2c-0.2-17.5-0.2-35.1,0-52.6c0.1-13.2,9.1-22.6,22.5-23.1c9.5-0.4,18.9-0.4,28.4,0
		c13.4,0.5,22.1,9.9,22.3,23.2C424.5,207.1,424.4,215.8,424.4,224.4z M374.4,199.1c0,16.4,0.1,31.1,0,45.8c0,6.5,4.8,5.7,8.2,4.9
		c6.2-1.5,16.5,5.4,18-4.8c2-13.3,0.7-27.2,0.3-40.8c0-1.7-3-4.7-4.8-4.8C389.2,198.8,382.3,199.1,374.4,199.1z"/>
	<path class="st0" d="M75.5,224.6c0-8.9-0.4-17.8,0.1-26.7c0.7-14,9.8-22.5,23.7-22.6c8.3-0.1,16.7-0.1,25,0
		c14.2,0.1,24.1,9,24.5,22.9c0.5,17.5,0.5,35.1,0,52.6c-0.4,14.1-9.6,22.4-23.6,22.6c-9.2,0.1-18.4,0.1-27.6,0
		c-12.5-0.2-21.1-7.8-21.9-20.4c-0.6-9.4-0.1-18.9-0.1-28.4C75.6,224.6,75.6,224.6,75.5,224.6z M125.8,224.5
		C125.8,224.5,125.8,224.5,125.8,224.5c0-6.7,0.5-13.4-0.3-20c-0.2-2-4.3-5.4-6.1-5.1c-6.8,1.2-14.9-4.7-20.4,3.5
		c-0.3,0.4-0.1,1.1-0.1,1.6c0,13.3-0.2,26.7,0.2,40c0.1,1.8,2.7,4.9,4.5,5.2c20.1,3.5,22.3,1.5,22.3-18.6
		C125.8,229,125.8,226.7,125.8,224.5z"/>
	<path class="st0" d="M238.1,186.4c0-4.2-0.4-8.4,0.1-12.5c0.8-7,4.6-11.2,12.1-11c7.6,0.3,11.1,4.7,10.9,11.9
		c-0.3,7.8-0.3,14.1,10.8,13.7c5.8-0.2,8.7,5.7,8.4,11.6c-0.3,5.9-3.4,10.3-9.6,10.8c-7.5,0.5-15,0.5-22.5,0
		c-6.7-0.4-9.7-5-10.2-11.2C237.8,195.3,238.1,190.8,238.1,186.4z"/>
</g>
</svg>
