<?xml version="1.0" encoding="utf-8"?>
<!-- Generator: Adobe Illustrator 27.2.0, SVG Export Plug-In . SVG Version: 6.00 Build 0)  -->
<svg version="1.1" id="Calque_1" xmlns="http://www.w3.org/2000/svg" xmlns:xlink="http://www.w3.org/1999/xlink" x="0px" y="0px"
	 viewBox="0 0 500 500" style="enable-background:new 0 0 500 500;" xml:space="preserve">
<style type="text/css">
	.st0{fill:#FFFFFF;}
</style>
<g>
	<path class="st0" d="M31.3,257.1c0-59.6-0.1-119.1,0-178.7c0.1-36.2,20.5-64.1,54.5-74.3c8.5-2.6,17.8-3.9,26.7-3.9
		C214-0.1,315.4,0,416.8,0.1c32.8,0,51.8,19.2,51.9,52.1c0.1,100.3,0,200.6,0.1,301c0,21-6.3,38.1-26.3,48.4
		c-2.6,1.4-5.1,5.8-5.2,8.9c-0.5,17.4-0.1,34.8-0.3,52.2c-0.1,5.7,1.9,8.6,7.8,8c1.4-0.1,2.8,0,4.2,0c13.3,0.2,19.5,5,19.5,15
		c0,9.8-6.1,14.2-20,14.2c-32.8,0-65.5,0-98.3,0c-84.7,0-169.4,0-254,0c-38,0-64.7-26.3-64.8-64.2C31.2,376.3,31.3,316.7,31.3,257.1
		z M154.9,203.3c0,53.3,0,106.6,0,159.9c0,13.6,0,13.7,13.9,13.7c81.5,0,163.1,0,244.6,0c20.8,0,26.1-5.3,26.1-25.9
		c0-98.2,0-196.4,0-294.7c0-21-5.8-27.1-26.5-27.1c-81.9-0.1-163.8,0.1-245.6-0.2c-10.4,0-12.8,3.7-12.7,13.4
		C155.1,96,154.9,149.7,154.9,203.3z M60.5,380.7c19.3-1.4,37.1-3.1,54.9-3.6c8.4-0.3,10.4-3.4,10.4-11.3
		c-0.2-108.3-0.3-216.7,0.1-325c0-10.7-4.6-12.2-13.2-11.6C79.3,31.5,60.6,51,60.6,84.7c-0.1,96.1,0,192.3,0,288.4
		C60.5,376.5,60.5,379.8,60.5,380.7z M243.7,406.2c0,0.2,0,0.4,0,0.6c-50.9,0-101.7-0.3-152.6,0.2c-18.5,0.2-30.3,13.4-30.3,31.5
		c0,18.1,11.8,31.5,30.3,31.5c102.8,0.5,205.5,0.5,308.3,0.8c6.5,0,8.4-2.8,8.3-8.8c-0.2-14.6-0.7-29.3,0.1-43.9
		c0.6-10.1-3.4-12.2-12.6-12.1C344.8,406.4,294.2,406.2,243.7,406.2z"/>
	<path class="st0" d="M295.6,249.2c-24.3,0-48.7,0-73,0c-12.8,0-18.3-4.5-18.3-14.7c0-10.1,5.5-14.6,18.4-14.6
		c49.7-0.1,99.4-0.1,149.1,0c12,0,17.5,4.6,17.7,14.3c0.2,10.6-4.9,15-17.8,15C346.4,249.3,321,249.2,295.6,249.2z"/>
	<path class="st0" d="M297,126.1c24.7,0,49.5-0.1,74.2,0c13.3,0,18.3,4.1,18.4,14.5c0,10-5.6,14.7-18.4,14.7c-49.5,0.1-99,0-148.4,0
		c-7.7,0-14.9-0.9-17.8-9.6c-3.6-11.1,3.1-19.6,15.7-19.7C246.1,125.9,271.6,126.1,297,126.1C297,126.1,297,126.1,297,126.1z"/>
</g>
</svg>
